<?xml version='1.0' encoding='iso-8859-1'?>
<svg version="1.1" xmlns="http://www.w3.org/2000/svg" viewBox="0 0 463 463" xmlns:xlink="http://www.w3.org/1999/xlink" enable-background="new 0 0 463 463">
  <path d="m383.5,232h-24.5v-89h0.5c12.958,0 23.5-10.542 23.5-23.5v-64c0-30.603-24.898-55.5-55.5-55.5h-192c-30.603,0-55.5,24.897-55.5,55.5v64c0,12.958 10.542,23.5 23.5,23.5h0.5v89h-24.5c-8.547,0-15.5,6.953-15.5,15.5v16c0,8.547 6.953,15.5 15.5,15.5h7.82l-14.536,167.157c-0.375,4.316 1.089,8.624 4.017,11.817 2.928,3.193 7.093,5.025 11.425,5.025h8.826c7.239,0 13.609-5.134 15.146-12.207l19.955-91.792h198.692l19.955,91.793c1.539,7.073 7.908,12.207 15.146,12.207h8.826c4.333,0 8.497-1.832 11.426-5.025 2.928-3.193 4.392-7.5 4.017-11.817l-14.535-167.158h7.82c8.547,0 15.5-6.953 15.5-15.5v-16c0-8.547-6.953-15.5-15.5-15.5zm-39.5,0h-17v-89h17v89zm-193,0v-89h161v89h-161zm-56-112.5v-64c0-22.332 18.168-40.5 40.5-40.5h192c22.332,0 40.5,18.168 40.5,40.5v64c0,4.687-3.813,8.5-8.5,8.5h-256c-4.687,0-8.5-3.813-8.5-8.5zm24,23.5h17v89h-17v-89zm-21.46,304.607c-0.05,0.228-0.255,0.393-0.488,0.393h-8.826c-0.061,0-0.22,0-0.368-0.162s-0.135-0.321-0.13-0.381l14.648-168.457h31.818l-36.654,168.607zm215.914-168.607l7.174,33h-178.258l7.174-33h163.91zm-178.04,65l3.696-17h184.779l3.696,17h-192.171zm239.858,103.456c0.005,0.06 0.019,0.219-0.13,0.381s-0.308,0.163-0.369,0.163h-8.826c-0.237,0-0.438-0.162-0.488-0.394l-36.654-168.606h31.819l14.648,168.456zm8.728-183.956c0,0.276-0.225,0.5-0.5,0.5h-304c-0.275,0-0.5-0.224-0.5-0.5v-16c0-0.276 0.225-0.5 0.5-0.5h304c0.275,0 0.5,0.224 0.5,0.5v16z"/>
</svg>
