<?xml version="1.0" encoding="iso-8859-1"?>
<!-- Generator: Adobe Illustrator 19.0.0, SVG Export Plug-In . SVG Version: 6.00 Build 0)  -->
<svg version="1.1" id="Capa_1" xmlns="http://www.w3.org/2000/svg" xmlns:xlink="http://www.w3.org/1999/xlink" x="0px" y="0px"
	 viewBox="0 0 512 512" style="enable-background:new 0 0 512 512;" xml:space="preserve">
<g>
	<g>
		<path d="M343.913,166.816l-24-160C319.326,2.899,315.962,0,312.001,0h-112c-3.961,0-7.326,2.899-7.912,6.816l-24,160
			c-0.654,4.37,2.358,8.442,6.728,9.096c0.392,0.059,0.788,0.088,1.184,0.088h72v288h-64c-4.418,0-8,3.582-8,8v32
			c0,4.418,3.582,8,8,8h144c4.418,0,8-3.582,8-8v-32c0-4.418-3.582-8-8-8h-64V176h24v34.216
			c-7.653,4.418-10.275,14.204-5.856,21.856c4.418,7.653,14.204,10.275,21.856,5.856c7.653-4.418,10.275-14.204,5.856-21.856
			c-1.404-2.432-3.424-4.452-5.856-5.856V176h32c4.418,0,8-3.582,8-8C344.001,167.604,343.971,167.208,343.913,166.816z
			 M320.001,480v16h-128v-16H320.001z M185.289,160l21.6-144h98.224l21.6,144H185.289z"/>
	</g>
</g>
<g>
</g>
<g>
</g>
<g>
</g>
<g>
</g>
<g>
</g>
<g>
</g>
<g>
</g>
<g>
</g>
<g>
</g>
<g>
</g>
<g>
</g>
<g>
</g>
<g>
</g>
<g>
</g>
<g>
</g>
</svg>
