<?xml version="1.0" encoding="iso-8859-1"?>
<!-- Generator: Adobe Illustrator 19.0.0, SVG Export Plug-In . SVG Version: 6.00 Build 0)  -->
<svg version="1.1" id="Capa_1" xmlns="http://www.w3.org/2000/svg" xmlns:xlink="http://www.w3.org/1999/xlink" x="0px" y="0px"
	 viewBox="0 0 480 480" style="enable-background:new 0 0 480 480;" xml:space="preserve">
<g>
	<g>
		<path d="M472,0H8C3.582,0,0,3.582,0,8v32c0,4.418,3.582,8,8,8h8v344c0,4.418,3.582,8,8,8h8v72c0,4.418,3.582,8,8,8h32
			c3.802,0.001,7.08-2.675,7.84-6.4L94.56,400h290.88l14.72,73.6c0.76,3.725,4.038,6.401,7.84,6.4h32c4.418,0,8-3.582,8-8v-72h8
			c4.418,0,8-3.582,8-8V48h8c4.418,0,8-3.582,8-8V8C480,3.582,476.418,0,472,0z M65.44,464H48v-64h30.24L65.44,464z M432,464h-17.44
			l-12.8-64H432V464z M448,384H32V48h416V384z M464,32H16V16h448V32z"/>
	</g>
</g>
<g>
	<g>
		<path d="M416,64H64c-4.418,0-8,3.582-8,8v128c0,4.418,3.582,8,8,8h352c4.418,0,8-3.582,8-8V72C424,67.582,420.418,64,416,64z
			 M408,192H72V80h336V192z"/>
	</g>
</g>
<g>
	<g>
		<path d="M416,224H64c-4.418,0-8,3.582-8,8v128c0,4.418,3.582,8,8,8h352c4.418,0,8-3.582,8-8V232C424,227.582,420.418,224,416,224z
			 M408,352H72V240h336V352z"/>
	</g>
</g>
<g>
	<g>
		<path d="M240,96c-13.255,0-24,10.745-24,24s10.745,24,24,24s24-10.745,24-24S253.255,96,240,96z M240,128c-4.418,0-8-3.582-8-8
			s3.582-8,8-8s8,3.582,8,8S244.418,128,240,128z"/>
	</g>
</g>
<g>
	<g>
		<path d="M240,256c-13.255,0-24,10.745-24,24s10.745,24,24,24s24-10.745,24-24S253.255,256,240,256z M240,288c-4.418,0-8-3.582-8-8
			s3.582-8,8-8s8,3.582,8,8S244.418,288,240,288z"/>
	</g>
</g>
<g>
</g>
<g>
</g>
<g>
</g>
<g>
</g>
<g>
</g>
<g>
</g>
<g>
</g>
<g>
</g>
<g>
</g>
<g>
</g>
<g>
</g>
<g>
</g>
<g>
</g>
<g>
</g>
<g>
</g>
</svg>
