<?xml version="1.0" encoding="iso-8859-1"?>
<!-- Generator: Adobe Illustrator 19.0.0, SVG Export Plug-In . SVG Version: 6.00 Build 0)  -->
<svg version="1.1" id="Capa_1" xmlns="http://www.w3.org/2000/svg" xmlns:xlink="http://www.w3.org/1999/xlink" x="0px" y="0px"
	 viewBox="0 0 512 512" style="enable-background:new 0 0 512 512;" xml:space="preserve">
<g>
	<g>
		<path d="M504,72H8c-4.418,0-8,3.582-8,8v48c0,4.418,3.582,8,8,8h24v296c0,4.418,3.582,8,8,8h32c4.418,0,8-3.582,8-8V136h352v296
			c0,4.418,3.582,8,8,8h32c4.418,0,8-3.582,8-8V136h24c4.418,0,8-3.582,8-8V80C512,75.582,508.418,72,504,72z M496,120h-24
			c-4.418,0-8,3.582-8,8v296h-16V128c0-4.418-3.582-8-8-8H72c-4.418,0-8,3.582-8,8v296H48V128c0-4.418-3.582-8-8-8H16V88h480V120z"
			/>
	</g>
</g>
<g>
</g>
<g>
</g>
<g>
</g>
<g>
</g>
<g>
</g>
<g>
</g>
<g>
</g>
<g>
</g>
<g>
</g>
<g>
</g>
<g>
</g>
<g>
</g>
<g>
</g>
<g>
</g>
<g>
</g>
</svg>
