<svg height="512" viewBox="0 0 512 512" width="512" xmlns="http://www.w3.org/2000/svg"><g><path d="m416 8h-320a8 8 0 0 0 -8 8v24a8 8 0 0 0 8 8h8v376a8 8 0 0 0 8 8v16a8 8 0 0 0 8 8v40a8 8 0 0 0 8 8h23a8 8 0 0 0 7.86-6.53l7.78-41.47h178.72l7.78 41.47a8 8 0 0 0 7.86 6.53h23a8 8 0 0 0 8-8v-40a8 8 0 0 0 8-8v-16a8 8 0 0 0 8-8v-376h8a8 8 0 0 0 8-8v-24a8 8 0 0 0 -8-8zm-271.64 480h-8.36v-32h14.36zm231.64 0h-8.36l-6-32h14.36zm8-48h-256v-8h256zm8-24h-272v-96h272zm-272-112v-256h128v256zm272 0h-128v-256h128zm16-272h-304v-8h304z"/><path d="m232 144a8 8 0 0 0 -8 8v48a8 8 0 0 0 16 0v-48a8 8 0 0 0 -8-8z"/><path d="m280 208a8 8 0 0 0 8-8v-48a8 8 0 0 0 -16 0v48a8 8 0 0 0 8 8z"/><path d="m216 352a8 8 0 0 0 8 8h64a8 8 0 0 0 0-16h-64a8 8 0 0 0 -8 8z"/></g></svg>